<svg id="Capa_1" enable-background="new 0 0 512 512" height="512" viewBox="0 0 512 512" width="512" xmlns="http://www.w3.org/2000/svg"><g><g><path d="m151 91c-16.538 0-30 13.462-30 30v90c0 16.538 13.462 30 30 30h30v-120c0-16.538-13.462-30-30-30z" fill="none"/><path d="m361 241h-30v-45h-30v45h-45-45v-120c0-33.091-26.909-60-60-60s-60 26.909-60 60v90c0 33.091 26.909 60 60 60h30v45h30v-45h45 45v120c0 33.091 26.909 60 60 60s60-26.909 60-60v-90c0-33.091-26.909-60-60-60zm-180 0h-30c-16.538 0-30-13.462-30-30v-90c0-16.538 13.462-30 30-30s30 13.462 30 30zm210 150c0 16.538-13.462 30-30 30s-30-13.462-30-30v-120h30c16.538 0 30 13.462 30 30z" fill="#474f54"/><path d="m301 391c0 33.091 26.909 60 60 60s60-26.909 60-60v-90c0-33.091-26.909-60-60-60h-30v-45h-30v45h-45v30h45zm30-120h30c16.538 0 30 13.462 30 30v90c0 16.538-13.462 30-30 30s-30-13.462-30-30z" fill="#32393f"/></g><path d="m241 301v60l-30 15h-30l-30-15v-60z" fill="#66e6ff"/><path d="m241 301v60l-30 15h-15v-75z" fill="#4dc3ff"/><path d="m151 361v106c0 24.901 20.099 45 45 45s45-20.099 45-45v-106z" fill="#4dc3ff"/><path d="m241 361v106c0 24.901-20.099 45-45 45v-151z" fill="#4da6ff"/><path d="m361 151v60h-90v-60l30-15h30z" fill="#66e6ff"/><path d="m361 151v60h-45v-75h15z" fill="#4dc3ff"/><path d="m361 45v106h-90v-106c0-24.901 20.099-45 45-45s45 20.099 45 45z" fill="#4dc3ff"/><path d="m361 45v106h-45v-151c24.901 0 45 20.099 45 45z" fill="#4da6ff"/></g></svg>